<svg xmlns="http://www.w3.org/2000/svg" viewBox="0 0 1012.77 782.5"><path d="M661.11,769.35c-21.84,4.09-43.66,8.25-65.52,12.24-6.47,1.19-13,1.9-18.69,2.71-8.41-9.6-8.78-11.45-4-19.59a44.17,44.17,0,0,1,4.94-6.33c18.29-21,40.29-36.45,67.16-44.37,40.57-12,82-17.1,124.23-13.77,16.88,1.33,33.66,3.88,50.52,5.43,24.77,2.28,48.77-1.88,72.59-8.6,31.68-8.94,64-14.67,96.71-18.81,24.42-3.1,49-6.82,73.4-4.32,18.68,1.91,33.7-3.26,48.53-13.21,7.7-5.17,16.79-8.23,24.66-13.19,28.13-17.74,54.47-38,74-65.12A736.69,736.69,0,0,0,1261,499.54c-11.23-1.4-20.79,2.39-30.58,3-4.44.28-8.85,1.29-13.28,1.31-11.44,0-16.83-4.78-17.91-15.44-.89-8.75,5.72-17.86,14.94-19.39,12.75-2.12,25.59-3.69,38.42-5.24,12-1.44,23.94-2.63,35.92-3.74a29.81,29.81,0,0,1,9.1.39c10.18,2.27,14.82,9.73,12,19.76-5.82,20.82-16.83,39.15-28.12,57.32l-26.84,43.18c15.52-2,29.86-3.72,44.16-5.79,10.36-1.5,18.2,2.33,20.29,10.48s-2.64,17.05-11.41,20.32c-5.36,2-11.18,2.79-18.82,4.6,6.81,1.92,12,3.45,17.31,4.88,19.69,5.36,39.35,10.87,59.1,16,21.76,5.64,43.17,6.22,63.43-5.66a17.08,17.08,0,0,1,2.52-.9c10.55-4.24,16.1-3.55,20.48,2.56,4.55,6.37,3.19,18.46-2.82,24.65-13.36,13.77-30.77,17.36-48.77,18.62-24.84,1.74-48.73-3.83-72.11-11.51-32.45-10.66-64.75-21.73-97.15-32.54a67.43,67.43,0,0,0-8-1.88L1155,680c23,2.95,43.54,7.17,63.31,14.63,19.41,7.33,39.9,11.93,58.88,22.25-5.39,15.95-12.13,30.12-22.47,42.45-5-3.65-9.85-7.49-15-10.94-16.49-11.09-32.76-22.4-51.57-29.66A197.91,197.91,0,0,0,1102.32,706c-13.88,1-28.17.91-41.69,6.24-10.17,4-20.92,6.52-31.41,9.7-6.31-6.84-13.41-5.23-20.29-2.13q-1.21,4.89-2.22,9l3.47,3.26c-23.14,13.94-46.76,27.15-69.28,42a293.24,293.24,0,0,1-70.44,33.6c-13.33,4.4-27.2,7.18-40.84,10.61-7.77,1.94-16,3.07-17.92,14.57,2.3,3.44,5.21,7.79,8.11,12.15l-6.66,4.33-7.37-5c6.16-4.83,3.61-9.64,1.58-14.93-5.56-2.69-12.05-4.69-17.14-8.55-7.44-5.64-14.73-7-23.92-1.83,2.89-5.44,5-17.86,4.35-22.37q3.15-5.18,6.29-10.34l29.29-5.52,10.3-.86,3.09-1.58c19.4-2.16,37.66-8.78,55.9-15.1,14.86-5.15,30.71-7.93,43.94-17.28,4.52-1.6,9.26-2.78,13.52-4.9,7.1-3.54,13.89-7.69,20.81-11.58l7.15-4-.75-2.14-11.94,3.42L900,737.43c-3.56.19-7.23-.14-10.65.66a192.33,192.33,0,0,1-47.27,5.14c-11.12-.2-22.26-.12-33.39-.16l-16.37-2.35c-14-3.71-28.07-7.34-42.6-2.46l-2.83-2-5.42,1.32-5.38.12c-7.16,1-14.84-2.36-21.51,2.63-10.41.14-20,2.36-27.16,10.72l-16.76,14.46,1.33.87Zm501.07-82.08-.82.69,1.53.13Z" transform="translate(-454.1 -138.64)" style="fill:#154258"/><path d="M878.77,461.37c-6.86,1.29-13.68,3-20.6,3.83-35.93,4.47-71.91,7.39-107.06-4.49-9.94-3.36-19.2-8.69-28.77-13.11A134.89,134.89,0,0,1,749,377.17c10.95-14.84,23.74-28.31,35.72-42.39l0,0,3-2.62L819.13,311l32.6-16.65h0l5.65-2.6a4,4,0,0,0,2.34-.37l5.41-2.45c10.42-3.61,21-6.83,31.23-10.88,24.31-9.62,49.33-18.06,70.15-34.6,7.71-6.13,18.86-15.41,26.23-22.64a57.7,57.7,0,0,1,16.09-11c8.82-4.16,18.89-13.24,43.91-18.53,1.24,30.94,3.22,92.66-5.77,124.57l30.2-3c.54.78,1.08,1.57,1.63,2.35-6.31,1.86-2.76,5.31-1.37,8.41l-36.32,7.23-20.18,33-2.59,2.93h0a63.14,63.14,0,0,0-20.63,23.74c9-.76,17.35-1.48,25.66-2.15,12.35-1,24.76-1.58,37.05-3.12,5.83-.73,11.43-3.26,17.13-5,25-4.62,48.67-12.77,70.11-26.74,2.87-1.07,6.18-1.55,8.54-3.3,13.3-9.82,26.4-19.9,39.55-29.92l5.39-4.52,2.84-2.64,0,.08,7.08-2.86L1195.7,297l-2.7-2.54-.12-.1-2.47-2.39-10.83-8.41,1.36-11.21a238.87,238.87,0,0,0,47.49-28,32.61,32.61,0,0,1,15.45-6.44c10.1-1.09,17.53,8.09,15.33,18.16a77,77,0,0,1-5.65,16.21c-8.34,17.68-18.15,34.48-31.41,49.05-5.09,6.57-9.94,13.35-15.33,19.67-14.63,17.18-33.36,28.9-52.73,40-38.73,22.19-81.65,29.65-124.71,36.92l-32.54,5.49c-13,.93-26.13,1.47-39.11,3-6.78.78-13.36,3.26-20,5l-21.5,5.43-21.51,8-8.05,2.7C878.47,449.89,878.47,449.89,878.77,461.37ZM967,371.56l10.95-10.36c30.12-34.45,43.57-74.28,39.69-122.28-3.44,3.11-5.37,4.62-7,6.38-3.94,4.18-7.57,8.66-11.66,12.68-5.95,5.84-12.18,11.39-18.3,17.06-2,.89-4,1.65-6,2.67-17.08,9.14-33.78,19.1-51.33,27.23-11.87,5.49-25,8.34-37.42,12.55-38.57,13-71.18,35.38-98.94,64.7a90.88,90.88,0,0,0-24.14,49.08c-.79,2.13-1.57,4.25-2.69,7.29,6.49-1.8,11.43-3.76,16.54-4.49,14.49-2.08,29.06-3.63,43.6-5.42,18.93-2.34,38.13-3.43,56.73-7.35C911.82,414,941.24,395.87,967,371.56Z" transform="translate(-454.1 -138.64)" style="fill:#164259"/><path d="M637.23,551c2,.9,3.57,1.79,5.25,2.34,22.62,7.46,38.61,31.76,23.51,63.52a74.27,74.27,0,0,1-27.25,30.61c-21.31,13.81-42.53,27.76-64.24,40.91-9.83,6-20.34,11.47-31.28,14.63a56.92,56.92,0,0,1-27.44.94c-19.81-4.56-30.15-18.21-29.58-38.92.61-21.81,2.88-43.58,4.85-65.32,1.64-18.19,3.7-36.34,5.93-54.47,2-15.88,4.43-31.7,6.62-47.56,1.27-9.19,2.42-18.4,3.72-28.39-8.64,5.18-12.14,12.8-15.1,20.79-4.75,12.86-9.7,16.63-19.77,15-11-1.75-19.29-11-18.26-22.6a49.36,49.36,0,0,1,6.26-20,118.31,118.31,0,0,1,38.38-40.23c21.21-13.7,43.8-23.9,68.77-27.46,27.43-3.91,54.57-2.3,78.8,13,25,15.78,37.9,38.92,35.53,68.67-1.93,24.33-12.41,45.3-30.47,62.11C646.91,542.8,642.11,546.77,637.23,551ZM550.3,442.89c0,6.15.51,11.1-.08,15.91-3.18,26.06-6.57,52.1-10,78.13s-7.12,52-10.46,78c-1.37,10.59-2.81,21.26-3,31.92-.29,16.9,11.41,23.35,25.77,14.39S581.09,643.1,595,633.41A218.69,218.69,0,0,0,621,612.54c13.9-13.3,5.82-24.82-4.7-30.35-6.66-3.49-13.85-5.52-21.81-4.09a99.76,99.76,0,0,1-18.7,1.21c-11.81-.13-20.21-6.89-22.24-17.28-2.13-10.93,3.36-22.09,14.12-25.81,6.12-2.11,13-2.36,19.6-2.61,6.74-.25,13.39-.09,19.4-3.76,14-8.6,25.58-19.6,31.68-35.16,10.53-26.87-2-55.2-28.71-62C589.21,427.42,569,430.07,550.3,442.89Z" transform="translate(-454.1 -138.64)" style="fill:#164158"/><path d="M708.38,667.22c-17.73,1.63-25-4.26-23.19-21.35,1.65-15.41,5.33-30.63,8.67-45.82,2.75-12.56,6.32-24.94,9.48-37.23-10.15-13.17-10.63-24.4-1.59-33.59,9.44-9.58,20.9-9,34.61,2.14,4-2.5,7.79-5.74,12.21-7.53,6.59-2.67,13.62-4.64,20.34.09,5.6,3.93,7.66,10.54,6.36,20.12,3.76,7.09,10.6,6.57,16.49,5.22,8.29-1.91,15.66-5.89,20.26-14,3.26-5.75,7-11.51,11.67-16.12,6.82-6.72,18.49-6.46,25.86-.82,7.8,6,9.18,14,7.31,22.86-1.81,8.53-10.42,15.76-19,16.65a31.26,31.26,0,0,1-6.7,0c-2.57-.28-5.1-1-8.68-1.67-1.08,2.12-2.83,4.64-3.73,7.45Q810.24,590.24,802,617c-1.61,5.19-2.73,10.47,1.78,14.95,12.37,1.68,12.37,1.68,25-9.44h11.9l5.92,11c-5.14,18.06-20,24.61-35.52,28.48a41,41,0,0,1-31.12-4.29c-9.28-5.47-15.1-12.63-14.44-23.6.56-9.31,1.81-18.6,3.11-27.85,1.11-7.83,2.73-15.58,4.27-24.19-14-.67-24.87-6.73-33-21.1-3.45,14.24-6.41,26-9.14,37.89-3.69,16-7,32.1-10.87,48.07C718,654.65,716,662.6,708.38,667.22Z" transform="translate(-454.1 -138.64)" style="fill:#164258"/><path d="M1029.22,722c10.49-3.18,21.24-5.7,31.41-9.7,13.52-5.33,27.81-5.28,41.69-6.24a197.91,197.91,0,0,1,85.86,12.64c18.81,7.26,35.08,18.57,51.57,29.66,5.12,3.45,10,7.29,15,10.94-5.34,8-10.53,16.08-16.1,23.9-2.21,3.1-5.29,5.6-8,8.37a215.19,215.19,0,0,0-64.56-11.15q-2.61-4.75-5.23,0l-48.16,3.15-8.36-.13c1.35-.9,2.64-2.49,4-2.59,14.56-1.06,29.15-1.76,43.71-2.85,4.75-.36,10.2-3.53,14-2,7.55,3,15,1.78,22.39,2,8.19.27,16,1,23.88,4.13,6.26,2.52,13.32,3,21.48,4.77,1.93-6.71,3.47-12.11,5.1-17.76,7-1.25,7-1.25,6.38-12-20.77-13-39.16-30.47-65.78-36.18,2.13,3.86,3.25,5.9,4.87,8.85l-8.79-.49-3.44-8.67-17.7,5.75c-9.44-7-19.63,2.06-30.58.86,3.82,9.93,11.86,7.32,19,7.93,3.16,2.6,6.54,5.35,9.88,8.15,3.51,3,7,6,11.09,9.51-6.34,4.11-11.27,6-16.55,1.2l12.18-1-9.65-4.31a82.76,82.76,0,0,0-36-8.09,323.52,323.52,0,0,0-35.87,2.48c-29,3.57-56,13.91-80.91,28.4-28.41,16.49-55.68,34.94-83.45,52.53l-2.72,2.39v0L909,828.26l1.91.65,5.24-.14,2.74.51c-.52.68-1,2-1.55,2-10.07-.25-17.77,4-24.35,11.46-2.82,3.18-6.47,4.47-11.61,3.15-5.54-1.43-11.72-.33-17.86-.33,4.53,9.45,8.79,11.86,18.72,10.44,11.7-1.66,23.53-2.89,35-5.61,6-1.43,13.65-1.54,19-10.59-7.52,3.82-12.09,3.7-14.67-2.87l21.34-11c-2.34,4-3.9,6.73-5.16,8.91l6,8c2.54-2.19,3.75-4.1,5.27-4.41,12.63-2.59,23.2-10,34.87-14.73,4.42-1.8,8.93-3.41,13.39-5.11-.49.72-.82,1.74-1.51,2.13-28.54,16-57.58,30.21-90.46,35.73-27,4.53-52.62,1.62-77.9-7.85l-2.6-.59-5-2.91c-2.9-4.36-5.81-8.71-8.11-12.15,1.87-11.5,10.15-12.63,17.92-14.57,13.64-3.43,27.51-6.21,40.84-10.61a293.24,293.24,0,0,0,70.44-33.6c22.52-14.87,46.14-28.08,69.28-42Z" transform="translate(-454.1 -138.64)" style="fill:#5acd73"/><path d="M827.36,848.56c25.28,9.47,50.93,12.38,77.9,7.85,32.88-5.52,61.92-19.77,90.46-35.73.69-.39,1-1.41,1.51-2.13,2.55-.52,5.25-.68,7.63-1.62,14.19-5.59,28.16-11.77,42.48-17,11.71-4.25,23.81-7.4,35.73-11l29.63-5.38,48.16-3.15h5.23a215.19,215.19,0,0,1,64.56,11.15l-21.79,26.93c-9.66-1-19.33-1.83-29-2.88-5.24-.57-10.43-1.58-15.66-2.09a60.6,60.6,0,0,0-10.69-.17c-7.9.63-15.8,1.35-23.66,2.42-17,2.3-34,4.41-50.85,7.38-29.21,5.14-56.37,16.78-83.52,28.08-32.39,13.47-65.81,21.87-100.85,23.71l-5.27.18c-24.14-.26-47.84-2.89-70.07-13.24L792.5,848.09l-35.18-27L755,818.34v0l-.12-8.05,2.88-5.27,3.1-2.44,9.82-5.87c.66,4.51-1.46,16.93-4.35,22.37,9.19-5.13,16.48-3.81,23.92,1.83,5.09,3.86,11.58,5.86,17.14,8.55,2,5.29,4.58,10.1-1.58,14.93l7.37,5,6.66-4.33,5,2.91-1.15,2.2Zm-28-17.83L796,832.41v11.25l9-6.89Z" transform="translate(-454.1 -138.64)" style="fill:#15435a"/><path d="M1405.32,587c-17.18,11.5-53.2,9.06-67.46-8.92-9-11.39-12.2-24.3-11.79-37.33,1-33.78,13.44-63.28,38.78-86.5,11.58-10.61,24.75-16.36,41.17-15.43,22.65,1.28,37.32,21.13,33.71,42.49-4.66,27.61-20.34,47-47.52,55.79-10.44,3.39-21.15,6-31.71,8.9,7.07,17.72,19,22.58,35.41,13.64,6.95-3.78,13.32-8.63,19.52-12.7,14.57,6.33,15.91,13.28,6,26.81-.84,1-1.68,1.89-2.53,2.83l.06-.05-2.76,2.71,0,0c-4.55-.43-9.56-3.74-13.29,2.48C1403.65,583.32,1404.49,585.16,1405.32,587ZM1396,468.17c-17.84,9.33-24.08,25.75-29.7,43.08,19.44,1.1,32.06-6.83,37.68-23.15C1407.08,479.13,1406,476,1396,468.17Zm-5.25-15.31c0,.9,0,1.79,0,2.69l8.38-.6c0-.52,0-1,0-1.56Z" transform="translate(-454.1 -138.64)" style="fill:#164259"/><path d="M1332.21,326.29c8.47-11.7,21.27-18.15,32.4-26.6,6.24-4.74,12.87-8.95,19.32-13.4l7.69-6.21-.77-1.42-7,1.67c-3.85-2.51-7.49-6.73-11.59-7.23-17-2.06-31.45,2.64-43.89,15.59a84,84,0,0,0-19.7,32.45c-1.41,3.44-2.82,6.88-4.4,10.71l4.37,2.74-21.36,33c-8.77-7.89-10-18-10.68-27.73-1.53-22.75,6.73-42.42,20.83-59.87,2.79-3.46,5.94-6.62,8.93-9.92l2.31-2.2,2.48-1.25c.11,2.12.21,4.24.32,6.35a18.78,18.78,0,0,1-.09,2.37q1.71,2.7,3.43,5.4l4.47-2.94,19-19.95-5.25-1.11-2.72-2.3c14.56-7.85,30.56-11.52,46.62-13.41,17.19-2,32.21-8.59,46.91-16.79l3.08-2.5,0,0,2.54-2.18a3.07,3.07,0,0,1,2.36-.7l6,0,0,0,3,5.44c.65,6.9,2.35,13.89,1.77,20.68-2.52,29.22-11.28,56-30.35,79.24-9.13,11.13-19.86,20-31,28.59l8.91-15.74c-1.79-2.5.33-9.17-6.58-10.2l-8.3,5.15c-1.5-1.95-2.5-3.24-2.43-3.14L1357.64,332c.12.72.43,2.63.88,5.45-7.72-2.46-14.8-8.28-22.38-1.87-4.2-8.21,7.41-4.4,7-10.07ZM1357,250.75c2.83,5.77,5.7,6.83,12.55,3.6Z" transform="translate(-454.1 -138.64)" style="fill:#58cd70"/><path d="M889.07,604.75c5,15.67,16,21.72,30.64,15.51,8.47-3.59,16-9.3,24.13-14.12,7.06,1.11,10.73,5.64,12.63,13.13-5.14,17-17.89,26.39-35.06,29.71a78.51,78.51,0,0,1-26.35.62c-26.39-4-44.59-30.33-40.19-56.75,4.17-25,13.66-47.76,29.34-67.68,12.8-16.24,28.87-26.27,50.66-24.4,20.57,1.77,35.69,19.5,32.07,39.69-4.72,26.29-18.6,46-44.78,55C911.35,599.21,900.11,601.7,889.07,604.75Zm6.27-34.62c20,1.66,31.91-6.17,37.75-23.5,2.23-6.61,1-11.13-3.81-15.29C912.46,530.64,901.58,543.12,895.34,570.13Z" transform="translate(-454.1 -138.64)" style="fill:#164158"/><path d="M1093.07,480.22c29.7-4.46,59.71-6.67,88.59-9.19,8.06,5.59,9.6,11.54,7.56,19.52-4.51,17.59-14,32.51-23.67,47.46-9.43,14.54-18.39,29.39-27.42,44.18-1.1,1.79-1.39,4.09-2.43,7.3,9.59,0,18.45-.69,27.14.21,8.13.84,16.49-4.93,23.82,0-6.18,6.78-12.12,13.32-18.08,19.85a26.87,26.87,0,0,1-17.41,9c-12.86,1.32-25.73,2.63-38.62,3.36-3.8.21-7.9-1.08-11.53-2.51-6.86-2.72-10.69-8.13-10.34-15.58.25-5.24.75-10.72,2.52-15.59,7-19.25,15.21-37.87,28.15-54.12,5.64-7.08,11.73-14.06,15.85-23.07-9.7.39-18,1.06-26.38,1C1092.61,511.82,1085.11,499.81,1093.07,480.22Z" transform="translate(-454.1 -138.64)" style="fill:#174258"/><path d="M1136.61,874.62c-22.77,15.17-48.06,24.81-74.14,32.07-20,5.55-40.29,10.37-60.79,13-17.18,2.22-34.85,1.28-52.28.91-11.06-.24-22.09-2-33.13-3.08,1.46-2.32,2.93-4.64,5.8-9.16-6.13,1.75-9.74,3.18-13.47,3.68-1.78.23-3.79-1.32-5.7-2.07l.42-2.11L915,906.36l-.09-2-24.76-1,9.74-11.56-6-9.14,8.85-5c11.27,2.65,22.53,5.35,33.81,7.93,8.34,1.91,16.71,3.66,25.07,5.49,3.53,7.14,8.82,5.73,14.68,3.31,13.05-5.37,26.31-10.25,39.3-15.75,11.82-5,23.42-10.51,35.05-15.92,4-1.87,8.47-3.58,8-9.37,9.58-2.07,19.23-3.91,28.73-6.31,5.62-1.42,11-4.36,16.94-1.73,2.26,1,4.48,2.59,6.8,2.76,5.76.41,11.56.16,17.35.17,3.12.82,6.22,2.19,9.37,2.34,6.41.32,12.58.85,17.58,5.46-6.26-1.31-4.51,4.92-7,7.6l-10.48,1C1137.44,868.43,1137,871.52,1136.61,874.62ZM1080,870.35c-9-.57-9-.57-12.87,5.34C1075.82,882.41,1077.65,881.76,1080,870.35Z" transform="translate(-454.1 -138.64)" style="fill:#33d0cd"/><path d="M1029,488.32l2.62-.58,8.14-2.37,2.73-.23c.87,1.93,1.73,3.87,2.94,6.56-3.56,3.05-7.1,6.09-11.12,9.52.79,2.82,1.69,6,2.7,9.64l-5.27,3.8-2.08-1.21,2.07,1.21c.11,1.17.22,2.34.32,3.51-6.95,10.74-15.87,20.52-17.8,34.23,19.76-.29,25-2.78,35.83-16.4l6.39-5.41c7.11,4.14,7.11,4.14,11.72,16.59-11.4,4.78-17.1,13.72-17.66,26-8.32,7.57-18.93,9.26-29.36,11.41-4.62,1-9.23,1.94-14.13,3,7.27,15.92,18.3,20.49,33,14.08,5.24-2.29,9.81-6.08,14.77-9,7-4.16,12.52-3.75,16.92,1.08,3.93,4.32,3.94,9.35,0,16-9.76,16.62-38.36,29.2-58.36,25.48-20.68-3.84-36.66-20.38-40.14-42.9-1.18-7.64.76-15.92,2.14-23.75,3.7-20.92,12.81-39.73,24.81-56.94,4.41-6.32,11.53-10.76,17.41-16.05l3.36-2.52-.05,0,2.74-2a2.23,2.23,0,0,1,2.25-.75ZM1025,500.61l.8-.67c-.22-.27-.43-.72-.68-.74a.94.94,0,0,0-.73.62C1024.34,500.06,1024.76,500.34,1025,500.61Z" transform="translate(-454.1 -138.64)" style="fill:#154157"/><path d="M961.6,891.05c-8.36-1.83-16.73-3.58-25.07-5.49-11.28-2.58-22.54-5.28-33.81-7.93l-8-.14c0-.86,0-1.71-.08-2.56,35-1.84,68.46-10.24,100.85-23.71,27.15-11.3,54.31-22.94,83.52-28.08,16.86-3,33.88-5.08,50.85-7.38,7.86-1.07,15.76-1.79,23.66-2.42a60.6,60.6,0,0,1,10.69.17c5.23.51,10.42,1.52,15.66,2.09,9.64,1,19.31,1.93,29,2.88-14.94,14.78-29.82,29.62-48,40.6l-5.5-3.07c-5-4.61-11.17-5.14-17.58-5.46-3.15-.15-6.25-1.52-9.37-2.34l15.53-1.5c-12.4-15.47-26.48-7.31-39.08-9.75-.28,3.94-.44,6.13-.6,8.32-6-2.63-11.32.31-16.94,1.73-9.5,2.4-19.15,4.24-28.73,6.31-4.44-3.34-8.48-2.49-13.4-.17-24.62,11.65-49.08,23.72-75.79,30.24C966.07,884.21,961.23,885.5,961.6,891.05Z" transform="translate(-454.1 -138.64)" style="fill:#26aeb0"/><path d="M870.49,224.54a4,4,0,0,1,2.39-.34l3.84,3.68-18.22,8.75,15.86,2.88-9.07,6.87c-5.79,3.14-11.27,7.14-17.41,9.26-19.6,6.78-36.08,18.68-52.63,30.56-.84,1-1.67,2-2.51,3,0,.78,0,1.55,0,2.32l-13.9,11c-4.75,2-9.59,3.87-7.83,10.63a48.28,48.28,0,0,1-3.94,5.2c-22.15,22.29-39.63,48-55.1,75.16-10.18-2.89-11.9-.9-9,10.74l6.32.72c-.61,1.15-1.21,2.3-1.84,3.5l4.64,6.86c-3.89,5.58-7.34,10.52-10.78,15.47l-24.74-22c1.21-13.86,9.11-23.95,14.36-35,3.79-8,9.3-15.09,14.07-22.58,22.82-35.85,52.62-65.36,87.25-89.17,20.25-13.93,43.82-23,66-34.18,1.87-.94,4.33-.71,6.51-1Z" transform="translate(-454.1 -138.64)" style="fill:#31d2ce"/><path d="M865.29,246.38l9.07-6.87-15.86-2.88,18.22-8.75-3.84-3.68c11.18-3.46,22.15-8,33.58-10.14,25.67-4.77,51.65-7.33,77.83-5.7,4.28.27,12.89,4,17.13,5-13.42,10.68-23.3,20.8-34.93,30-20.82,16.54-45.84,25-70.15,34.6-10.24,4.05-20.81,7.27-31.23,10.88-.38-2.05-.77-4.1-1.33-7.06L856,275c-3.65,7.38,2.44,11.23,3.74,16.29a4,4,0,0,1-2.34.37l-5.65,2.6h0c-1.86-5-3.73-10-5.57-14.93l15.05-14c-.36-.78-.9-2-1.44-3.19l15.91-7C876,246.3,871.26,245.48,865.29,246.38Z" transform="translate(-454.1 -138.64)" style="fill:#3acfcd"/><path d="M996.84,423.34l32.54-5.49c43.06-7.27,86-14.73,124.71-36.92,19.37-11.11,38.1-22.83,52.73-40,5.39-6.32,10.24-13.1,15.33-19.67,4.81,7.71,9.65,15.41,14.41,23.16,1.8,2.92,3.42,5.95,5.12,8.94-3,1.59-6.24,2.88-9,4.84-13.66,9.7-26.29,21.28-41,29a366.77,366.77,0,0,1-79.33,30.7l-35.85,6.53c1.65,2.86,2.46,5.06,3.94,6.62,1.33,1.4,3.41,2.1,5.15,3.11v-.05l-8.12,2.08-62,8-16.77-3.13C998.1,435.2,997.47,429.27,996.84,423.34Z" transform="translate(-454.1 -138.64)" style="fill:#28aeb1"/><path d="M1077.15,312.88l-30.2,3c9-31.91,10-62.68,8.77-93.62,14.25,4.62,28.91,8.25,42.62,14.11,15.87,6.77,30.91,15.49,46.3,23.37.15,6.27-5.33,5.7-8.72,7.59-3.8-2.14-6.15-7.38-11.57-4.34q-3.28,14.32-6.57,28.72Z" transform="translate(-454.1 -138.64)" style="fill:#56cf71"/><path d="M1112.41,417.91a366.77,366.77,0,0,0,79.33-30.7c14.66-7.74,27.29-19.32,41-29,2.75-2,6-3.25,9-4.84l21.47,34.81c-4.05,1.66-8.14,3.23-12.14,5-8.46,3.74-16.58,8.52-25.35,11.22-21,6.46-42.3,12-63.33,17.82l1.62,1.46c-6.38,1.22-12.72,2.68-19.15,3.59-16.13,2.28-32.3,4.3-48.45,6.43C1104,430.78,1110.12,426.29,1112.41,417.91Z" transform="translate(-454.1 -138.64)" style="fill:#3ad0cc"/><path d="M1117.78,291.67q3.29-14.37,6.57-28.72c5.42-3,7.77,2.2,11.57,4.34,3.39-1.89,8.87-1.32,8.72-7.59l8.2,5c-4.68,0-8,2.26-13.06,7.67l12-1.8,6.38,6.82c-1.85,4.34-4.8,8.67,2.31,11.19l7.9-6,8.27,7.8c-1,4.26-1.77,7.51-2.6,11.08,3.61,2.2,6.46,4.25,9.57,5.74s6.74,2.54,6.07,7.49c-4.92,1.86-12.11,2-9,11.95,4.55-3.45,8.47-6.75,12.76-9.45,1-.63,3.27.76,5,1.22-14,10.67-28,21.44-42.19,31.92-2.36,1.75-5.67,2.23-8.54,3.3-6.66-3.77,0-4.89.21-5.19-.55-7.19-.95-12.5-1.47-19.25l-27.13-10.4c2-3.25,4.15-5.9,5.34-8.93.5-1.25-1-3.29-1.64-5l2.85-7.77-2.34-2.86-.25-.25-2.93-2.32A8.44,8.44,0,0,1,1117.78,291.67Z" transform="translate(-454.1 -138.64)" style="fill:#5cce72"/><path d="M712,393.5c15.47-27.17,33-52.87,55.1-75.16a48.28,48.28,0,0,0,3.94-5.2l5.37-.11c2,4.65,8.7,8,3.73,14.8-.58.78,2.92,4.56,4.54,6.95-12,14.08-24.77,27.55-35.72,42.39a134.89,134.89,0,0,0-26.61,70.43l-21.06-16.81c3.44-5,6.89-9.89,10.78-15.47l-4.64-6.86c.63-1.2,1.23-2.35,1.84-3.5C713.89,402,711.77,397.49,712,393.5Z" transform="translate(-454.1 -138.64)" style="fill:#29b1b4"/><path d="M894.74,877.49l8,.14-8.85,5,6,9.14-9.74,11.56,24.76,1,.09,2-11.66,1.53L902.9,910c1.91.75,3.92,2.3,5.7,2.07,3.73-.5,7.34-1.93,13.47-3.68-2.87,4.52-4.34,6.84-5.8,9.16-7-.88-14.23-.81-20.85-2.82-21.81-6.63-43.4-14-65-21.18-1.12-.37-2-1.59-2.92-2.41l-15.09-13.29c6.52-.26,12,5.52,14.07-1.9l-11.77-10.21,4.66-3.87c22.23,10.35,45.93,13,70.07,13.24Z" transform="translate(-454.1 -138.64)" style="fill:#3bd1cf"/><path d="M1332.21,326.29l11-.76c.36,5.67-11.25,1.86-7,10.07,7.58-6.41,14.66-.59,22.38,1.87-.45-2.82-.76-4.73-.88-5.45l15.13-3.21c-.07-.1.93,1.19,2.43,3.14l8.3-5.15c6.91,1,4.79,7.7,6.58,10.2l-8.91,15.74c-23.87,16.12-50.53,20.79-80.6,19.41C1309.69,354.91,1319,339.32,1332.21,326.29Z" transform="translate(-454.1 -138.64)" style="fill:#56c96f"/><path d="M1031.78,514.66l5.27-3.8c-1-3.62-1.91-6.82-2.7-9.64,4-3.43,7.56-6.47,11.12-9.52-1.21-2.69-2.07-4.63-2.94-6.56,18.36-3.87,35.69,6,40.32,23.31,6.44,24.11-4.38,42.1-21.23,57.63-3.18,2.92-7.34,4.78-11,7.13.56-12.31,6.26-21.25,17.66-26-4.61-12.45-4.61-12.45-11.72-16.59l-6.39,5.41c0-6.84,2.64-13.94-1.57-20.07-6.44-3.69-11.35-.11-16.46,2.24-.1-1.17-.21-2.34-.32-3.51Zm31.63,44.42-.66-.8c-.27.22-.72.43-.75.68a1,1,0,0,0,.63.73C1062.86,559.72,1063.15,559.3,1063.41,559.08Z" transform="translate(-454.1 -138.64)" style="fill:#19445b"/><path d="M711.47,802.4c-7.11-8.42-14.37-16.72-21.25-25.32-3.51-4.39-7.09-8-13.18-7.59,9.81-6.31,21.12-7.92,32.2-10.27,4.88,3.84,9.66,5.9,16.31,3.15,2.7-1.11,8.05-3,10.57,2.24l-2.69,2.69c-8.18,3.2-5.85,10.44-5,15.92,2.43,16.28,10.16,29.15,26.57,35.14v0l0,2.75a4,4,0,0,1-.48,1.2c-.25.29-.84.65-1.06.54-6.69-3.41-9.64-4.09-15.57-3.16-3.48-3.53-7.38-10.69-11.18-10.64C719.77,809.13,717.22,802.58,711.47,802.4Z" transform="translate(-454.1 -138.64)" style="fill:#46d9d5"/><path d="M711.47,802.4c5.75.18,8.3,6.73,15.18,6.63,3.8,0,7.7,7.11,11.18,10.64,5.93-.93,8.88-.25,15.57,3.16.22.11.81-.25,1.06-.54a4,4,0,0,0,.48-1.2h2.38l35.18,27c-2.24,3.73-4.53,7.44-6.66,11.24-.19.35.56,1.23,1.11,2.34l8.75-2.75c3,2.11,6.27,4.32,9.45,6.58.25.19.23.77.5,1.81-1.17,3.56-9.7.9-7.8,7.74-8.14-4.31-17.29-7.42-24.25-13.16-18.49-15.27-36.16-31.55-53.86-47.75C716.29,811,714.19,806.35,711.47,802.4Z" transform="translate(-454.1 -138.64)" style="fill:#4ed6d4"/><path d="M1280.43,388.31c3.51,0,7,.05,10.52,0,26.08-.4,51.77-3.62,76.55-12,15.58-5.29,30.35-12,41.56-25,6.93-8,14.94-15.13,23.62-23.8-1.25,8.52-3,12.67-8.65,19.32-20.18,24-45.24,40.18-76.07,46.8-10.27,2.2-20.65,4.79-31,5.17-10.94.41-22-1.39-32.93-2.78-1.87-.24-3.37-3.27-5-5C1279.43,390.07,1279.93,389.19,1280.43,388.31Z" transform="translate(-454.1 -138.64)" style="fill:#cef2f4"/><path d="M996.84,423.34c.63,5.93,1.26,11.86,1.88,17.72l16.77,3.13c-20.16,2.8-40.31,5.63-60.47,8.35a42.53,42.53,0,0,1-6.67-.09l-10.14-5.22c1.13-3.62,2.15-6.87,2.72-8.72-1.35-3-2.29-5.12-3.23-7.22,6.67-1.71,13.25-4.19,20-5C970.71,424.81,983.8,424.27,996.84,423.34Z" transform="translate(-454.1 -138.64)" style="fill:#26a9a9"/><path d="M1050.18,166.57l-30.55-16.87c6.25,13.78,21.15,16.85,31.65,26-21.69,9.44-40.92.2-46.38-21.34-1-3.79-1.87-7.6-2.83-11.5,12.46-7,24.26-4.16,36,.41C1047.74,147.06,1050.74,154.55,1050.18,166.57Z" transform="translate(-454.1 -138.64)" style="fill:#57cb75"/><path d="M1308.63,321.14a84,84,0,0,1,19.7-32.45c12.44-12.95,26.93-17.65,43.89-15.59,4.1.5,7.74,4.72,11.59,7.23l-3.24,2.77-31.9,13.76c-11.53-2.61-16.3,9.6-25.69,11.7C1323.84,319.19,1314.9,318.64,1308.63,321.14Z" transform="translate(-454.1 -138.64)" style="fill:#44bb68"/><path d="M1164,423.66l-1.62-1.46c21-5.85,42.33-11.36,63.33-17.82,8.77-2.7,16.89-7.48,25.35-11.22,4-1.77,8.09-3.34,12.14-5l8.93,17.58c-18.21,7.12-36.67,7.59-54.47,10.9S1182.21,424.15,1164,423.66Z" transform="translate(-454.1 -138.64)" style="fill:#25acb0"/><path d="M1335.5,702.79c-5.28-.41-11.7,7.32-16.06-2.89,6.12-7.08,15.29-10.25,23.5-12.29,6.89-1.71,15.22,1.86,22.79,3.62,6.77,1.57,13.25,4.8,20.06,5.63,9.08,1.11,18.47,2.21,27.15-3,2.12-1.26,5.17-1,9.72-1.69-5.14,10-11.56,13.37-20.18,13.33-11.58,0-23.16,0-34.74,0l-2.67-5.39-6.8-8.05c-8.55.16-16.17-1.51-22.79,4.92v5.84Z" transform="translate(-454.1 -138.64)" style="fill:#d5f3f4"/><path d="M1198.38,318.36c-1.69-.46-4-1.85-5-1.22-4.29,2.7-8.21,6-12.76,9.45-3.07-9.94,4.12-10.09,9-11.95.67-4.95-2.84-5.94-6.07-7.49s-6-3.54-9.57-5.74c.83-3.57,1.6-6.82,2.6-11.08l-8.27-7.8-7.9,6c-7.11-2.52-4.16-6.85-2.31-11.19l-6.38-6.82-12,1.8c5.1-5.41,8.38-7.71,13.06-7.67L1172,276.13l7.55,7.38a4.23,4.23,0,0,0-1.22.46,2,2,0,0,0-.58,1c6.53,5.84,10.34,14.39,19.17,18,3.93,1.63,7.29,5,7,10.23l0-.08-2.84,2.64Zm-.58-6.55-.66-.8c-.27.22-.72.43-.75.67a1,1,0,0,0,.63.74C1197.25,312.45,1197.54,312,1197.8,311.81Z" transform="translate(-454.1 -138.64)" style="fill:#56cf71"/><path d="M709.24,759.22c-11.08,2.35-22.39,4-32.2,10.27l-15.93-.14,10.87-3-1.33-.87,16.76-14.46,27.16-10.72c6.67-5,14.35-1.67,21.51-2.63,0,.9,0,1.81,0,2.72l-5.33,2.69Z" transform="translate(-454.1 -138.64)" style="fill:#29acb2"/><path d="M692.58,280.67l-11-6.7c2.38-3.54,3.64-7.78,6.18-8.78,12.32-4.86,17.51-15.49,22.62-26.52C723,256.28,716.48,272.53,692.58,280.67Z" transform="translate(-454.1 -138.64)" style="fill:#39d0ce"/><path d="M797.85,875.05c-1.9-6.84,6.63-4.18,7.8-7.74-.27-1-.25-1.62-.5-1.81-3.18-2.26-6.4-4.47-9.45-6.58L787,861.67c-.55-1.11-1.3-2-1.11-2.34,2.13-3.8,4.42-7.51,6.66-11.24l26.82,13.78-4.66,3.87L826.43,876c-2.1,7.42-7.55,1.64-14.07,1.9l15.09,13.29Z" transform="translate(-454.1 -138.64)" style="fill:#45d5d0"/><path d="M937.7,431.29c.94,2.1,1.88,4.19,3.23,7.22-.57,1.85-1.59,5.1-2.72,8.72l10.14,5.22-24.12,3L913.54,450c1.09-5.44,1.88-9.34,2.66-13.25Z" transform="translate(-454.1 -138.64)" style="fill:#259fa4"/><path d="M657.09,687.79c-4.1,1.88-6.85,4.34-9.25,4-13.13-1.64-24.27,3.2-35.16,9.44-1.29.74-2.94.83-6.3,1.73,5.71-12.74,15-19,25.54-21.13C639.19,680.39,648.66,677.84,657.09,687.79Z" transform="translate(-454.1 -138.64)" style="fill:#cdf2f3"/><path d="M916.2,436.72c-.78,3.91-1.57,7.81-2.66,13.25l10.69,5.45-32.17,5c2.33-5,7.39-9.46,2.63-15.62Z" transform="translate(-454.1 -138.64)" style="fill:#239498"/><path d="M645.17,310.84c5.33,12.48.17,18.43-6.76,23-6.56,4.33-14,5.59-21.22,1.3-4-2.38-6.79-5.71-4.29-9.75l18.79,5Z" transform="translate(-454.1 -138.64)" style="fill:#58ca81"/><path d="M1112.41,417.91c-2.29,8.38-8.39,12.87-16.06,15.77l-10.7.49c-1.74-1-3.82-1.71-5.15-3.11-1.48-1.56-2.29-3.76-3.94-6.62Z" transform="translate(-454.1 -138.64)" style="fill:#34c7c6"/><path d="M1406.66,387.28c11.31-13.43,28.78-19.21,38.18-34.84,4.81,4.25,3.93,7.11,1.15,10C1435,374,1422.08,382.6,1406.66,387.28Z" transform="translate(-454.1 -138.64)" style="fill:#def6f7"/><path d="M1308.63,321.14c6.27-2.5,15.21-1.95,14.35-12.58,9.39-2.1,14.16-14.31,25.69-11.7a209,209,0,0,0-40.07,37.73l-4.37-2.74C1305.81,328,1307.22,324.58,1308.63,321.14Z" transform="translate(-454.1 -138.64)" style="fill:#47bd73"/><path d="M1155.38,856l5.5,3.07a41.77,41.77,0,0,1-24.27,15.54c.42-3.1.83-6.19,1.34-10l10.48-1C1150.87,860.93,1149.12,854.7,1155.38,856Z" transform="translate(-454.1 -138.64)" style="fill:#43ccca"/><path d="M1365.07,700.1l2.67,5.39c-9.68,11.68-18.28,11.67-29.57,0h0l12.77,2.49C1357.52,709.27,1361.36,707.14,1365.07,700.1Z" transform="translate(-454.1 -138.64)" style="fill:#eaf7f8"/><path d="M897.09,159.86c0,1.8,0,3.6,0,5.4l-2.3,2.8,0,0c-6,.39-10.89-.8-11-8.28l0,0,2.62-3.14c2.88-2.95,5.7-3.17,8.42.21Z" transform="translate(-454.1 -138.64)" style="fill:#37d0d2"/><path d="M894.69,444.77c4.76,6.16-.3,10.66-2.63,15.62l-5.45.08,0-13Z" transform="translate(-454.1 -138.64)" style="fill:#1a7f86"/><path d="M1311.43,273c-.11-2.11-.21-4.23-.32-6.35,4.6-6.89,12.06-9.26,19.18-12.18l2.72,2.3Z" transform="translate(-454.1 -138.64)" style="fill:#69d18a"/><path d="M792,185.93c2.64-6.36,5.17-8.72,10.49-6.31v11.1Z" transform="translate(-454.1 -138.64)" style="fill:#3cc2bd"/><path d="M886.64,447.47l0,13-7.84.9C878.47,449.89,878.47,449.89,886.64,447.47Z" transform="translate(-454.1 -138.64)" style="fill:#1a6472"/><path d="M1405.32,587c-.83-1.85-1.67-3.69-2.4-5.31,3.73-6.22,8.74-2.91,13.29-2.48Z" transform="translate(-454.1 -138.64)" style="fill:#224f67"/><path d="M1191.42,216.14l-5.68-14.31,15.83,4.19Z" transform="translate(-454.1 -138.64)" style="fill:#33bfb6"/><path d="M1129.82,202.4h-13.1l6.6-8.6Z" transform="translate(-454.1 -138.64)" style="fill:#73cea0"/><path d="M883.83,159.74c.09,7.48,4.94,8.67,11,8.28-3.56,4.86-7.66,3.52-11.15.34C880.93,165.87,879.59,162.52,883.83,159.74Z" transform="translate(-454.1 -138.64)" style="fill:#4bcccc"/><path d="M1380.57,283.1l3.24-2.77,7-1.67.77,1.42-7.69,6.21Z" transform="translate(-454.1 -138.64)" style="fill:#dff6e4"/><path d="M1460.16,312.94c2-.55,4-1.13,6-1.57a7.93,7.93,0,0,1,.65,2.09c-1.89,1-3.87,1.81-5.83,2.66C1460.74,315.06,1460.45,314,1460.16,312.94Z" transform="translate(-454.1 -138.64)" style="fill:#55c7c5"/><path d="M1039.8,485.37l-8.14,2.37Z" transform="translate(-454.1 -138.64)" style="fill:#19445b"/><path d="M1077.54,436.2l8.12-2.08Z" transform="translate(-454.1 -138.64)" style="fill:#34c7c6"/><path d="M870.49,224.54l-5.79,2.35Z" transform="translate(-454.1 -138.64)" style="fill:#3acfcd"/><path d="M1440.79,224.23l-3-5.44Z" transform="translate(-454.1 -138.64)" style="fill:#58ce77"/><path d="M1437.83,218.82l-6,0C1433.83,216.1,1435.83,215.07,1437.83,218.82Z" transform="translate(-454.1 -138.64)" style="fill:#58ce77"/><path d="M1338.17,705.47l-2.67-2.68,0,0,2.68,2.67Z" transform="translate(-454.1 -138.64)" style="fill:#d5f3f4"/><path d="M1426.9,221.76l-3.08,2.5Z" transform="translate(-454.1 -138.64)" style="fill:#58ce77"/><path d="M1429.49,219.54l-2.54,2.18Z" transform="translate(-454.1 -138.64)" style="fill:#58ce77"/><path d="M1308.63,267.89l-2.31,2.2Z" transform="translate(-454.1 -138.64)" style="fill:#69d18a"/><path d="M894.77,168.06l2.3-2.8Z" transform="translate(-454.1 -138.64)" style="fill:#4bcccc"/><path d="M1029,488.32l-3.13,2Z" transform="translate(-454.1 -138.64)" style="fill:#19445b"/><path d="M897.09,159.86c-.75-1-1.5-2-2.26-3C895.59,157.85,896.34,158.86,897.09,159.86Z" transform="translate(-454.1 -138.64)" style="fill:#4bcccc"/><path d="M886.41,156.64l-2.62,3.14Z" transform="translate(-454.1 -138.64)" style="fill:#4bcccc"/><path d="M1418.87,576.59c.85-.94,1.69-1.88,2.53-2.83C1420.56,574.71,1419.72,575.65,1418.87,576.59Z" transform="translate(-454.1 -138.64)" style="fill:#224f67"/><path d="M1416.17,579.25l2.76-2.71Z" transform="translate(-454.1 -138.64)" style="fill:#224f67"/><path d="M1021,493.06l-3.36,2.52Z" transform="translate(-454.1 -138.64)" style="fill:#19445b"/><path d="M1023.66,491.05l-2.74,2Z" transform="translate(-454.1 -138.64)" style="fill:#19445b"/><path d="M730.77,743.12l5.33-2.69,5.36-2.84,5.42-1.32.19,4.37v0l-2.76,2.73.08-.09c-4.07,3.24-4,5.15.38,7.75,10.32-2.37,20.6.12,30.87.55,8.53.36,14.51-1.94,16.66-10.81l16.37,2.35,6.16,6.61-5.41,8.66c3.41,7.8,3,16.14,10.19,20.09L816.53,780l-14.3-2.74,4,3.6-29.29,5.52c-3-.08-5.91-.23-4.29-4.66a13.55,13.55,0,0,0-2.06-1.16c-.12-2.42-.24-4.84-.36-7.23-12.32.19-17.77,3.47-20.42,11.73-2.48,7.7-.16,13.57,7.92,20l-2.88,5.27c-5.14.26-8.33-.84-11.05-6.56-3.7-7.8-6.82-14.65-2.45-23,.6-1.15-.47-3.17-.8-4.92l-7.12.92V767.3l2.69-2.69,5.28-7.72C736.24,753.55,739.12,744,730.77,743.12Z" transform="translate(-454.1 -138.64)" style="fill:#33cfcb"/><path d="M819.62,778.43c-7.22-3.95-6.78-12.29-10.19-20.09l5.41-8.66-6.16-6.61c11.13,0,22.27,0,33.39.16a192.33,192.33,0,0,0,47.27-5.14c3.42-.8,7.09-.47,10.65-.66,1.17,2,2,5.18,3.57,5.66,5.14,1.54,10.58,2,15.9,3-13.23,9.35-29.08,12.13-43.94,17.28C857.28,769.65,839,776.27,819.62,778.43Z" transform="translate(-454.1 -138.64)" style="fill:#3bcecd"/><path d="M792.31,740.72c-2.15,8.87-8.13,11.17-16.66,10.81-10.27-.43-20.55-2.92-30.87-.55-.13-2.58-.25-5.17-.38-7.75l-.08.09,2.76-2.73v0l2.64-2.38C764.24,733.38,778.27,737,792.31,740.72Z" transform="translate(-454.1 -138.64)" style="fill:#f0f9f9"/><path d="M919.46,746.05c-5.32-.91-10.76-1.42-15.9-3-1.61-.48-2.4-3.69-3.57-5.66l48.26-10.6,5.54,2.74c-6.92,3.89-13.71,8-20.81,11.58C928.72,743.27,924,744.45,919.46,746.05Z" transform="translate(-454.1 -138.64)" style="fill:#34cccf"/><path d="M1029.22,722l-19,10.13-3.47-3.26q1-4.11,2.22-9C1015.81,716.75,1022.91,715.14,1029.22,722Z" transform="translate(-454.1 -138.64)" style="fill:#1e4d5b"/><path d="M770.59,780.57a13.55,13.55,0,0,1,2.06,1.16c-1.62,4.43,1.28,4.58,4.29,4.66q-3.13,5.18-6.29,10.34l-9.82,5.87V788.9Z" transform="translate(-454.1 -138.64)" style="fill:#34c1be"/><path d="M714.57,740.34l-27.16,10.72C694.57,742.7,704.16,740.48,714.57,740.34Z" transform="translate(-454.1 -138.64)" style="fill:#4eaab3"/><path d="M953.79,729.57l-5.54-2.74,11.94-3.42.75,2.14Z" transform="translate(-454.1 -138.64)" style="fill:#3aafb5"/><path d="M806.23,780.87l-4-3.6,14.3,2.74Z" transform="translate(-454.1 -138.64)" style="fill:#3bcecd"/><path d="M749.71,738.26l-2.64,2.38c-.06-1.46-.13-2.92-.19-4.37Z" transform="translate(-454.1 -138.64)" style="fill:#3dd2ce"/><path d="M741.46,737.59l-5.36,2.84c0-.91,0-1.82,0-2.72Z" transform="translate(-454.1 -138.64)" style="fill:#3dd2ce"/><path d="M1162.18,687.27l.71.82-1.53-.13Z" transform="translate(-454.1 -138.64)" style="fill:#3a6983"/><path d="M762.82,431.27A90.88,90.88,0,0,1,787,382.19c27.76-29.32,60.37-51.7,98.94-64.7,12.47-4.21,25.55-7.06,37.42-12.55,17.55-8.13,34.25-18.09,51.33-27.23,1.92-1,4-1.78,6-2.67L972,287.17l8.75,3.22-11.28,14.28c-6.71-3-8.93-12.71-19.6-8.88,7.57,8.28,17.81,12.55,20.21,23.19-19.64,13.75-40.49,24.58-64,30.56-22.14,5.62-43.7,13.51-65.7,19.79-10.23,2.92-18,9.36-25.82,15.72-1.82,1.47-2,5-3.74,9.79l14-6.25-7.17,9.71c6.4,3.63,12.61,7.58,19.22,10.69,2.59,1.22,6.18,1.14,9.11.6,9.8-1.8,19.51-4.08,29.31-6.18,4.64-15.61,21.95-8.86,28.5-16.21l22.38-.69c3.74-5.28,5.76-10.82,8.08-10.95,7.7-.4,8.46-6.29,10.29-11.72l11.5,6.59c3.5-2.75,8.86-8.07,9.69-7.43,5.21,4,7.82-4.66,12.13-1.8L967,371.56c-3.59-4.69-6.6.11-8.91,1.26-20,10-39.55,20.84-61,28-26.91,9-54,15.47-82.66,14.58-5.14-.16-10.33,2.25-15.52,2.33C785.14,417.91,773.06,422,762.82,431.27Z" transform="translate(-454.1 -138.64)" style="fill:#36cccb"/><path d="M977.91,361.2c-4.31-2.86-6.92,5.76-12.13,1.8-.83-.64-6.19,4.68-9.69,7.43l-11.5-6.59c-1.83,5.43-2.59,11.32-10.29,11.72-2.32.13-4.34,5.67-8.08,10.95l-22.38.69c-6.55,7.35-23.86.6-28.5,16.21-9.8,2.1-19.51,4.38-29.31,6.18-2.93.54-6.52.62-9.11-.6-6.61-3.11-12.82-7.06-19.22-10.69l7.17-9.71c10.55-8.49,23-12.93,35.79-16.4,24.74-6.71,50.14-11.24,73.73-21.68,15.43-6.84,31-13.82,40.41-29.13l2.16-4.59L972.38,319a18.94,18.94,0,0,0-2.26,0c-2.4-10.64-12.64-14.91-20.21-23.19,10.67-3.83,12.89,5.9,19.6,8.88l11.28-14.28L972,287.17,980.61,275c6.12-5.67,12.35-11.22,18.3-17.06,4.09-4,7.72-8.5,11.66-12.68,1.66-1.76,3.59-3.27,7-6.38C1021.48,286.92,1008,326.75,977.91,361.2Z" transform="translate(-454.1 -138.64)" style="fill:#33cdca"/><path d="M1123,304.83c.61,1.69,2.14,3.73,1.64,5-1.19,3-3.32,5.68-5.34,8.93l27.13,10.4c.52,6.75.92,12.06,1.47,19.25-.2.3-6.87,1.42-.21,5.19-21.44,14-45.1,22.12-70.11,26.74-2.74-1.35-5.48-3.87-8.22-3.86-13.43,0-26.55-3.66-40-2.94-4.77.25-10.79,1.19-11-6.7h0l2.59-2.93,20.18-33,36.32-7.23a147.24,147.24,0,0,0,43.12-18.31c.52.58,1,1.17,1.55,1.76l1-2.26Z" transform="translate(-454.1 -138.64)" style="fill:#55cf70"/><path d="M762.82,431.27c10.24-9.28,22.32-13.36,36.08-13.56,5.19-.08,10.38-2.49,15.52-2.33,28.62.89,55.75-5.61,82.66-14.58,21.42-7.14,40.93-18,61-28,2.31-1.15,5.32-5.95,8.91-1.26-25.72,24.31-55.14,42.4-90,49.74-18.6,3.92-37.8,5-56.73,7.35-14.54,1.79-29.11,3.34-43.6,5.42-5.11.73-10,2.69-16.54,4.49C761.25,435.52,762,433.4,762.82,431.27Z" transform="translate(-454.1 -138.64)" style="fill:#74e0df"/><path d="M859.77,262.21c.54,1.2,1.08,2.41,1.44,3.19l-15.05,14c1.84,4.94,3.71,9.93,5.57,14.93l-37.57,19.19c2.2-7.21-2.94-12.57-4.85-18.73-.17-.54-2.41-.44-3.69-.63C821.4,279.64,840.62,271,859.77,262.21Z" transform="translate(-454.1 -138.64)" style="fill:#36c8c7"/><path d="M805.62,294.13c1.28.19,3.52.09,3.69.63,1.91,6.16,7.05,11.52,4.85,18.73l-26.51,18.62-3,2.62,0,0c-1.62-2.39-5.12-6.17-4.54-6.95,5-6.8-1.72-10.15-3.73-14.8h0c.89-.93,1.78-1.86,2.66-2.8-.06-2.57-.13-5.15-.19-7.73l13.9-11Z" transform="translate(-454.1 -138.64)" style="fill:#2dbdbc"/><path d="M1018.33,366.82c.17,7.89,6.19,6.95,11,6.7,13.48-.72,26.6,3,40,2.94,2.74,0,5.48,2.51,8.22,3.86-5.7,1.71-11.3,4.24-17.13,5-12.29,1.54-24.7,2.12-37.05,3.12-8.31.67-16.61,1.39-25.66,2.15A63.14,63.14,0,0,1,1018.33,366.82Z" transform="translate(-454.1 -138.64)" style="fill:#4fc069"/><path d="M1120.53,305.33a147.24,147.24,0,0,1-43.12,18.31c-1.39-3.1-4.94-6.55,1.37-8.41-.55-.78-1.09-1.57-1.63-2.35l40.63-21.21a8.44,8.44,0,0,0,2.51,0l2.93,2.32.25.25,2.34,2.86-2.85,7.77h.09A5.23,5.23,0,0,0,1120.53,305.33Z" transform="translate(-454.1 -138.64)" style="fill:#154a61"/><path d="M1203.94,313.28c.3-5.2-3.06-8.6-7-10.23-8.83-3.65-12.64-12.2-19.17-18a2,2,0,0,1,.58-1,4.23,4.23,0,0,1,1.22-.46l10.83,8.41,2.47,2.39.12.1,2.7,2.54L1211,310.42Z" transform="translate(-454.1 -138.64)" style="fill:#5cce72"/><path d="M859.7,291.33c-1.3-5.06-7.39-8.91-3.74-16.29l7.82,6.78c.56,3,1,5,1.33,7.06Z" transform="translate(-454.1 -138.64)" style="fill:#36c8c7"/><path d="M851.71,294.3l5.65-2.6Z" transform="translate(-454.1 -138.64)" style="fill:#36c8c7"/><path d="M1192.88,294.31l-2.47-2.39Z" transform="translate(-454.1 -138.64)" style="fill:#56cf71"/><path d="M1195.7,297l-2.7-2.54Z" transform="translate(-454.1 -138.64)" style="fill:#56cf71"/><path d="M1201.13,315.84l2.84-2.64Z" transform="translate(-454.1 -138.64)" style="fill:#5cce72"/><path d="M784.62,334.73l3-2.62Z" transform="translate(-454.1 -138.64)" style="fill:#29b1b4"/><path d="M1020.91,363.9l-2.59,2.93Z" transform="translate(-454.1 -138.64)" style="fill:#4fc069"/><path d="M1083.07,788.93c-11.92,3.64-24,6.79-35.73,11-14.32,5.19-28.29,11.37-42.48,17-2.38.94-5.08,1.1-7.63,1.62-4.46,1.7-9,3.31-13.39,5.11-11.67,4.77-22.24,12.14-34.87,14.73-1.52.31-2.73,2.22-5.27,4.41l-6-8c1.26-2.18,2.82-4.88,5.16-8.91l-21.34,11c2.58,6.57,7.15,6.69,14.67,2.87-5.36,9-13,9.16-19,10.59-11.46,2.72-23.29,3.95-35,5.61-9.93,1.42-14.19-1-18.72-10.44,6.14,0,12.32-1.1,17.86.33,5.14,1.32,8.79,0,11.61-3.15,6.58-7.42,14.28-11.71,24.35-11.46.5,0,1-1.27,1.55-2l2.91-2.69c10-4.38,20.54-7.93,30-13.32,13.44-7.67,26.15-16.63,39.12-25.12,36.81-24.11,77.11-36.81,121.19-37.09,10.69-.06,21.38.3,32.08.46l3.15,2.54c5.28,4.78,10.21,2.91,16.55-1.2-4.12-3.54-7.58-6.55-11.09-9.51-3.34-2.8-6.72-5.55-9.88-8.15-7.16-.61-15.2,2-19-7.93,10.95,1.2,21.14-7.86,30.58-.86l17.7-5.75,3.44,8.67,8.79.49c-1.62-3-2.74-5-4.87-8.85,26.62,5.71,45,23.19,65.78,36.18.66,10.72.66,10.72-6.38,12-1.63,5.65-3.17,11-5.1,17.76-8.16-1.72-15.22-2.25-21.48-4.77-7.83-3.13-15.69-3.86-23.88-4.13-7.44-.25-14.84.95-22.39-2-3.8-1.5-9.25,1.67-14,2-14.56,1.09-29.15,1.79-43.71,2.85-1.4.1-2.69,1.69-4,2.59l-22.58,3Zm72.17-55.68c2.28,6.55,6.23,4.41,9.75,3.24.39-.13.35-1.55.69-3.24Z" transform="translate(-454.1 -138.64)" style="fill:#57cf71"/><path d="M1144.19,751.52c-10.7-.16-21.39-.52-32.08-.46-44.08.28-84.38,13-121.19,37.09-13,8.49-25.68,17.45-39.12,25.12-9.46,5.39-20,8.94-30,13.32l-5.65,2.18-5.24.14c0-.81,0-1.62,0-2.43v0l2.72-2.39c27.77-17.59,55-36,83.45-52.53,25-14.49,51.93-24.83,80.91-28.4a323.52,323.52,0,0,1,35.87-2.48,82.76,82.76,0,0,1,36,8.09Z" transform="translate(-454.1 -138.64)" style="fill:#fcfdfc"/><path d="M1083.07,788.93l-1.31-2.55,22.58-3,8.36.13Z" transform="translate(-454.1 -138.64)" style="fill:#5fc783"/><path d="M1144.19,751.52l5.68-2.77,9.65,4.31-12.18,1Z" transform="translate(-454.1 -138.64)" style="fill:#d3f2e0"/><path d="M1166.09,780.4h-5.23Q1163.47,775.65,1166.09,780.4Z" transform="translate(-454.1 -138.64)" style="fill:#57cf71"/><path d="M916.15,828.77l5.65-2.18-2.91,2.69Z" transform="translate(-454.1 -138.64)" style="fill:#d3f1db"/><path d="M827.36,848.56l-3.75,1.61,1.15-2.2Z" transform="translate(-454.1 -138.64)" style="fill:#154258"/><path d="M913.59,824.07l-2.72,2.39Z" transform="translate(-454.1 -138.64)" style="fill:#d3f1db"/><path d="M910.86,826.48c0,.81,0,1.62,0,2.43l-1.91-.65Z" transform="translate(-454.1 -138.64)" style="fill:#d3f1db"/><path d="M733.43,767.3v9.44l7.12-.92c.33,1.75,1.4,3.77.8,4.92-4.37,8.36-1.25,15.21,2.45,23,2.72,5.72,5.91,6.82,11.05,6.56l.12,8.05c-16.41-6-24.14-18.86-26.57-35.14C727.58,777.74,725.25,770.5,733.43,767.3Z" transform="translate(-454.1 -138.64)" style="fill:#3dcfce"/><path d="M770.59,780.57l-9.76,8.33v13.7l-3.1,2.44c-8.08-6.4-10.4-12.27-7.92-20,2.65-8.26,8.1-11.54,20.42-11.73Z" transform="translate(-454.1 -138.64)" style="fill:#f0fbfb"/><path d="M799.39,830.73l5.57,6-9,6.89V832.41Z" transform="translate(-454.1 -138.64)" style="fill:#154258"/><path d="M894.74,877.49l-5.35-2.38,5.27-.18C894.7,875.78,894.72,876.63,894.74,877.49Z" transform="translate(-454.1 -138.64)" style="fill:#33d0cd"/><path d="M757.32,821.09h-2.38l0-2.75Z" transform="translate(-454.1 -138.64)" style="fill:#3dcfce"/><path d="M1396,468.17c10,7.79,11.07,11,8,19.93-5.62,16.32-18.24,24.25-37.68,23.15C1371.93,493.92,1378.17,477.5,1396,468.17Z" transform="translate(-454.1 -138.64)" style="fill:#fcfcfc"/><path d="M1390.76,452.86l8.35.53c0,.52,0,1,0,1.56l-8.38.6C1390.75,454.65,1390.75,453.76,1390.76,452.86Z" transform="translate(-454.1 -138.64)" style="fill:#305d74"/><path d="M1311.43,273,1333,256.76l5.25,1.11-19,19.95-7.9-2.46A18.78,18.78,0,0,0,1311.43,273Z" transform="translate(-454.1 -138.64)" style="fill:#e7f7ed"/><path d="M1357,250.75l12.55,3.6C1362.72,257.58,1359.85,256.52,1357,250.75Z" transform="translate(-454.1 -138.64)" style="fill:#6dd47e"/><path d="M1311.34,275.36l7.9,2.46-4.47,2.94Q1313,278.06,1311.34,275.36Z" transform="translate(-454.1 -138.64)" style="fill:#69d18a"/><path d="M895.34,570.13c6.24-27,17.12-39.49,33.94-38.79,4.84,4.16,6,8.68,3.81,15.29C927.25,564,915.34,571.79,895.34,570.13Z" transform="translate(-454.1 -138.64)" style="fill:#fbfbfc"/><path d="M961.6,891.05c-.37-5.55,4.47-6.84,7.82-7.66,26.71-6.52,51.17-18.59,75.79-30.24,4.92-2.32,9-3.17,13.4.17.49,5.79-4,7.5-8,9.37-11.63,5.41-23.23,10.92-35.05,15.92-13,5.5-26.25,10.38-39.3,15.75C970.42,896.78,965.13,898.19,961.6,891.05Z" transform="translate(-454.1 -138.64)" style="fill:#154962"/><path d="M1104.28,845.28c.16-2.19.32-4.38.6-8.32,12.6,2.44,26.68-5.72,39.08,9.75l-15.53,1.5c-5.79,0-11.59.24-17.35-.17C1108.76,847.87,1106.54,846.24,1104.28,845.28Z" transform="translate(-454.1 -138.64)" style="fill:#164c63"/><path d="M1080,870.35c-2.34,11.41-4.17,12.06-12.87,5.34C1071,869.78,1071,869.78,1080,870.35Z" transform="translate(-454.1 -138.64)" style="fill:#c3f0f4"/><path d="M1032.09,518.17c5.11-2.35,10-5.93,16.46-2.24,4.21,6.13,1.52,13.23,1.57,20.07-10.78,13.62-16.07,16.11-35.83,16.4C1016.22,538.69,1025.14,528.91,1032.09,518.17Z" transform="translate(-454.1 -138.64)" style="fill:#fafbfb"/><path d="M1031.77,514.66l-2.07-1.21,2.08,1.21Z" transform="translate(-454.1 -138.64)" style="fill:#19445b"/><path d="M1025,500.61c-.22-.27-.64-.55-.61-.79a.94.94,0,0,1,.73-.62c.25,0,.46.47.68.74Z" transform="translate(-454.1 -138.64)" style="fill:#19445b"/><path d="M805.62,294.13l-12.86-2.59c0-.77,0-1.54,0-2.32.84-1,1.67-2,2.51-3,16.55-11.88,33-23.78,52.63-30.56,6.14-2.12,11.62-6.12,17.41-9.26,6-.9,10.67-.08,10.39,8.83l-15.91,7C840.62,271,821.4,279.64,805.62,294.13Z" transform="translate(-454.1 -138.64)" style="fill:#154d63"/><path d="M712,393.5c-.22,4,1.9,8.53-2.73,11.46l-6.32-.72C700.09,392.6,701.81,390.61,712,393.5Z" transform="translate(-454.1 -138.64)" style="fill:#d7f8f9"/><path d="M778.86,302.51c.06,2.58.13,5.16.19,7.73-.88.94-1.77,1.87-2.66,2.8h0l-5.37.11C769.27,306.38,774.11,304.48,778.86,302.51Z" transform="translate(-454.1 -138.64)" style="fill:#12687a"/><path d="M795.25,286.2c-.84,1-1.67,2-2.51,3C793.58,288.22,794.41,287.21,795.25,286.2Z" transform="translate(-454.1 -138.64)" style="fill:#2dbdbc"/><path d="M1125.81,297.06l-2.34-2.86Z" transform="translate(-454.1 -138.64)" style="fill:#56cf71"/><path d="M1123.22,294l-2.93-2.32Z" transform="translate(-454.1 -138.64)" style="fill:#56cf71"/><path d="M1063.41,559.08c-.26.22-.55.64-.78.61a1,1,0,0,1-.63-.73c0-.25.48-.46.75-.68Z" transform="translate(-454.1 -138.64)" style="fill:#154157"/><path d="M730.77,743.12c8.35.89,5.47,10.43,10.63,13.77l-5.28,7.72c-2.52-5.22-7.87-3.35-10.57-2.24-6.65,2.75-11.43.69-16.31-3.15Z" transform="translate(-454.1 -138.64)" style="fill:#3dd2ce"/><path d="M1338.16,705.48l-2.68-2.67V697c6.62-6.43,14.24-4.76,22.79-4.92l6.8,8.05c-3.71,7-7.55,9.17-14.14,7.87Z" transform="translate(-454.1 -138.64)" style="fill:#fbfdfd"/><path d="M1197.8,311.81c-.26.22-.55.64-.78.61a1,1,0,0,1-.63-.74c0-.24.48-.45.75-.67Z" transform="translate(-454.1 -138.64)" style="fill:#5cce72"/><path d="M744.4,743.23c.13,2.58.25,5.17.38,7.75C740.42,748.38,740.33,746.47,744.4,743.23Z" transform="translate(-454.1 -138.64)" style="fill:#3dd2ce"/><path d="M747.08,740.59l-2.76,2.73Z" transform="translate(-454.1 -138.64)" style="fill:#3dd2ce"/><path d="M970.12,319a18.94,18.94,0,0,1,2.26,0l2.42,2.36c-9.43,15.31-25,22.29-40.41,29.13-23.59,10.44-49,15-73.73,21.68-12.79,3.47-25.24,7.91-35.79,16.4l-14,6.25c1.75-4.82,1.92-8.32,3.74-9.79,7.86-6.36,15.59-12.8,25.82-15.72,22-6.28,43.56-14.17,65.7-19.79C929.63,343.56,950.48,332.73,970.12,319Z" transform="translate(-454.1 -138.64)" style="fill:#fafdfd"/><path d="M974.8,321.38,972.38,319l4.58-2.23Z" transform="translate(-454.1 -138.64)" style="fill:#36cccb"/><path d="M1120.53,305.33a5.23,5.23,0,0,1,2.52-.5l-1,2.26C1121.56,306.5,1121.05,305.91,1120.53,305.33Z" transform="translate(-454.1 -138.64)" style="fill:#5cce72"/><path d="M776.39,313c.89-.93,1.78-1.86,2.66-2.8C778.17,311.18,777.28,312.11,776.39,313Z" transform="translate(-454.1 -138.64)" style="fill:#29b1b4"/><path d="M601.48,483.14l9.31-4.58C611.77,488.33,611.77,488.33,601.48,483.14Z" transform="translate(-454.1 -138.64)" style="fill:#47bfbb"/><path d="M1155.24,733.25h10.44c-.34,1.69-.3,3.11-.69,3.24C1161.47,737.66,1157.52,739.8,1155.24,733.25Z" transform="translate(-454.1 -138.64)" style="fill:#5acd73"/></svg>